<?xml version="1.0" encoding="utf-8"?>
<!-- Generator: Adobe Illustrator 19.1.0, SVG Export Plug-In . SVG Version: 6.00 Build 0)  -->
<svg version="1.1" id="svg-main" xmlns="http://www.w3.org/2000/svg" xmlns:xlink="http://www.w3.org/1999/xlink" x="0px" y="0px"
	 width="841.9px" height="725.6px" viewBox="0 0 841.9 725.6" enable-background="new 0 0 841.9 725.6" xml:space="preserve">
<g id="svg-container">
	<g id="svg-lange-long">
		<g id="shake_1_">
			<path fill="#842356" stroke="#595857" stroke-width="2" stroke-miterlimit="10" d="M277,328.6c-5.6,9.3-6.1,18.4,0,27h144.6
				c7.8-9,6-19.8,0-31.4l-48.9-38L277,328.6z"/>
			<polygon fill="#761E4C" stroke="#595857" stroke-width="2" stroke-miterlimit="10" points="337.6,304.5 372.6,335.2 404.1,304.5 
				372.6,286.2 			"/>
			<path fill="#E7E6BC" stroke="#595857" stroke-width="2" stroke-miterlimit="10" d="M279.1,256.5c33.7-3.5,59.2,0.2,77.3,10.4
				c11.4,6,15,12.6,16.2,19.3c0,24.2-79.6,69.3-95.7,53.3C245.1,321.5,251.8,257.2,279.1,256.5z"/>
			<path fill="#E7E6BC" stroke="#595857" stroke-width="2" stroke-miterlimit="10" d="M428.6,256.5c-20.2-3.5-35.4,0.2-46.2,10.4
				c-6.8,6-9,12.6-9.7,19.3c-2.4,10.2,42.8,53.2,53.3,45.3c17.2-15.4,15.7-64.7,13.5-64.6C439.5,266.9,437.3,259.8,428.6,256.5z"/>
			<polygon fill="#CBCBA7" stroke="#595857" stroke-width="2" stroke-miterlimit="10" points="277,355.6 421.5,355.6 406.7,373.5 
				291.6,373.5 			"/>
			<polygon fill="#761E4C" stroke="#595857" stroke-width="2" stroke-miterlimit="10" points="302.5,391.4 398.2,391.4 406.7,373.5 
				291.6,373.5 			"/>
		</g>
	</g>
	<g id="svg-lange-middle">
		<g id="shake">
			<g id="parts">
				
					<ellipse transform="matrix(0.4341 -0.9009 0.9009 0.4341 18.3674 366.1328)" fill="#E7E6BC" stroke="#595857" stroke-width="2" stroke-miterlimit="10" cx="300.6" cy="168.4" rx="37.6" ry="49.7"/>
				<path fill="#842356" stroke="#595857" stroke-width="2" stroke-miterlimit="10" d="M338,87.4c48.6,1.1,83.7,13.7,109.6,34.3
					l11,21.2l-28.5,9.5l-1.5,28.5l10.2,16.8V213h-90.6l-32.1-35.8l-89.8-30.7C253.9,121.1,285,97.7,338,87.4z"/>
				<polygon fill="#761E4C" points="381.9,123.4 335.1,150.2 365.7,194 396.4,194 				"/>
				<path fill="none" stroke="#595857" stroke-width="2" stroke-miterlimit="10" d="M287.1,167.3c7.9-27.6,48.1-79.9,48.1-79.9"/>
			</g>
			<g id="wink">
				<path fill="#FFFFFF" stroke="#595857" stroke-width="2" stroke-miterlimit="10" d="M432.6,157.9c0,20-16.2,36.1-36.1,36.1
					c-20,0-36.1-16.2-36.1-36.1c0-11.9,6.3-23.4,16-30c2.1-1.4,9.8-6.5,20.2-6.2C412.5,122.3,432.6,135.9,432.6,157.9z"/>
				<circle fill="#3F3B3A" cx="420.9" cy="157.9" r="5.5"/>
			</g>
		</g>
		<g id="parts_2_">
			<polygon fill="#CBCBA7" stroke="#595857" stroke-width="2" stroke-miterlimit="10" points="202.7,587.8 233.9,606.4 202.8,620.2 
							"/>
			<path fill="#842356" stroke="#595857" stroke-width="2" stroke-miterlimit="10" d="M197.3,593.1c-2.6,26.8,40.2-0.8,61.4,25.3
				c22.5,11.4,34.6,8.6,42.7,0C299.3,558.6,201,554.5,197.3,593.1z"/>
			<path fill="#E7E6BC" stroke="#595857" stroke-width="2" stroke-miterlimit="10" d="M270.4,574.8l-7.7,28.1
				c25.6-8.3,59.5,17.3,59.5,17.3h44.4C365.4,599.3,312.5,570.5,270.4,574.8z"/>
		</g>
		<g id="parts_1_">
			<polygon fill="#CBCBA7" stroke="#595857" stroke-width="2" stroke-miterlimit="10" points="520.5,588.1 551.7,606.7 520.5,620.5 
							"/>
			<path fill="#842356" stroke="#595857" stroke-width="2" stroke-miterlimit="10" d="M515,593.4c-2.6,26.8,40.2-0.8,61.4,25.3
				c22.5,11.4,34.6,8.6,42.7,0C617,558.9,518.7,554.8,515,593.4z"/>
			<path fill="#E7E6BC" stroke="#595857" stroke-width="2" stroke-miterlimit="10" d="M588.2,575.1l-7.7,28.1
				c25.6-8.3,59.5,17.3,59.5,17.3h44.4C683.1,599.7,630.2,570.8,588.2,575.1z"/>
		</g>
	</g>
	<g id="svg-lange-short">
		<g id="moveY">
			<ellipse fill="#E7E6BC" stroke="#595857" stroke-width="2" stroke-miterlimit="10" cx="536.7" cy="150.9" rx="18" ry="17.5"/>
			<ellipse fill="#842356" stroke="#595857" stroke-width="2" stroke-miterlimit="10" cx="539.5" cy="133.2" rx="25.6" ry="24.8"/>
			<path fill="#E7E6BC" stroke="#595857" stroke-width="2" stroke-miterlimit="10" d="M547.5,117.8l-8,31.4c15.6-5,31,0,46.3,8.8
				l-3.2-21.9C577.3,127.9,566.9,121.4,547.5,117.8z"/>
		</g>
		<g id="moveX">
			<ellipse fill="#E7E6BC" stroke="#595857" stroke-width="2" stroke-miterlimit="10" cx="455.4" cy="306.8" rx="18" ry="17.5"/>
			<ellipse fill="#842356" stroke="#595857" stroke-width="2" stroke-miterlimit="10" cx="458.1" cy="289.1" rx="25.6" ry="24.8"/>
			<path fill="#E7E6BC" stroke="#595857" stroke-width="2" stroke-miterlimit="10" d="M466.2,273.8l-8,31.4c15.6-5,31,0,46.3,8.8
				l-3.2-21.9C495.9,283.9,485.5,277.4,466.2,273.8z"/>
		</g>
	</g>
</g>
</svg>
